<svg width="38" height="38" viewBox="0 0 38 38" fill="none" xmlns="http://www.w3.org/2000/svg">
<path d="M4.75 11.0835C4.74992 10.6676 4.83177 10.2558 4.99086 9.87157C5.14996 9.48733 5.38319 9.13819 5.67723 8.84409C5.97127 8.54999 6.32036 8.3167 6.70458 8.15753C7.08879 7.99837 7.50059 7.91644 7.91647 7.91644H30.0835C30.9234 7.9166 31.7288 8.25034 32.3226 8.84426C32.9164 9.43819 33.25 10.2437 33.25 11.0835V26.9164C33.2501 27.3323 33.1682 27.7441 33.0091 28.1284C32.85 28.5126 32.6168 28.8618 32.3228 29.1559C32.0287 29.45 31.6796 29.6832 31.2954 29.8424C30.9112 30.0016 30.4994 30.0835 30.0835 30.0835H7.91647C7.50059 30.0835 7.08879 30.0016 6.70458 29.8424C6.32036 29.6832 5.97127 29.45 5.67723 29.1559C5.38319 28.8618 5.14996 28.5126 4.99086 28.1284C4.83177 27.7441 4.74992 27.3323 4.75 26.9164V11.0835Z" stroke="#22E27F" stroke-width="1.1875" stroke-linecap="round" stroke-linejoin="round"/>
<path d="M11.0835 23.75V17.4165C11.0996 16.5873 11.4402 15.7975 12.0323 15.2168C12.6244 14.636 13.4206 14.3107 14.25 14.3107C15.0793 14.3107 15.8755 14.636 16.4676 15.2168C17.0597 15.7975 17.4004 16.5873 17.4164 17.4165V23.75M11.0835 20.5835H17.4164M26.9164 14.25V23.75H24.5414C24.0717 23.75 23.6125 23.6107 23.222 23.3497C22.8314 23.0888 22.527 22.7178 22.3472 22.2839C22.1675 21.8499 22.1204 21.3724 22.2121 20.9117C22.3037 20.451 22.5299 20.0278 22.8621 19.6956C23.1942 19.3635 23.6174 19.1373 24.0781 19.0456C24.5388 18.954 25.0163 19.001 25.4503 19.1808C25.8843 19.3605 26.2552 19.665 26.5162 20.0555C26.7771 20.4461 26.9164 20.9053 26.9164 21.375" stroke="#22E27F" stroke-width="1.1875" stroke-linecap="round" stroke-linejoin="round"/>
</svg>
