<svg width="38" height="38" viewBox="0 0 38 38" fill="none" xmlns="http://www.w3.org/2000/svg">
<path d="M12.6664 33.25H25.3336C27.4332 33.25 29.4468 32.416 30.9314 30.9314C32.416 29.4468 33.25 27.4332 33.25 25.3336V20.5836C33.25 19.3239 32.7496 18.1157 31.8588 17.2249C30.968 16.3341 29.7598 15.8336 28.5 15.8336H26.9163V12.6664C26.9163 10.5668 26.0823 8.55325 24.5977 7.06865C23.1131 5.58404 21.0995 4.75 19 4.75H12.6664C10.5668 4.75 8.55325 5.58404 7.06865 7.06865C5.58404 8.55325 4.75 10.5668 4.75 12.6664V25.3336C4.75 27.4332 5.58404 29.4468 7.06865 30.9314C8.55325 32.416 10.5668 33.25 12.6664 33.25Z" stroke="#22E27F" stroke-width="1.9" stroke-linecap="round" stroke-linejoin="round"/>
<path d="M11.0836 13.4587C11.0836 12.8288 11.3338 12.2247 11.7792 11.7793C12.2246 11.3339 12.8287 11.0837 13.4586 11.0837H18.2086C18.8385 11.0837 19.4426 11.3339 19.888 11.7793C20.3334 12.2247 20.5836 12.8288 20.5836 13.4587C20.5836 14.0886 20.3334 14.6927 19.888 15.1381C19.4426 15.5835 18.8385 15.8337 18.2086 15.8337H13.4586C12.8287 15.8337 12.2246 15.5835 11.7792 15.1381C11.3338 14.6927 11.0836 14.0886 11.0836 13.4587ZM11.0836 24.5414C11.0836 23.9115 11.3338 23.3074 11.7792 22.862C12.2246 22.4166 12.8287 22.1664 13.4586 22.1664H24.5413C25.1712 22.1664 25.7753 22.4166 26.2207 22.862C26.6661 23.3074 26.9163 23.9115 26.9163 24.5414C26.9163 25.1713 26.6661 25.7754 26.2207 26.2208C25.7753 26.6662 25.1712 26.9164 24.5413 26.9164H13.4586C12.8287 26.9164 12.2246 26.6662 11.7792 26.2208C11.3338 25.7754 11.0836 25.1713 11.0836 24.5414Z" stroke="#22E27F" stroke-width="1.9" stroke-linecap="round" stroke-linejoin="round"/>
</svg>
