<svg width="38" height="38" viewBox="0 0 38 38" fill="none" xmlns="http://www.w3.org/2000/svg">
<path d="M11.0835 31.6665H26.9165M14.25 25.3335V31.6665M23.75 25.3335V31.6665M14.25 19V17.1M19 19V15.675M23.75 19V12.825M4.75 7.91646C4.75016 7.49659 4.91706 7.09396 5.21402 6.79712C5.51097 6.50028 5.91366 6.33353 6.33353 6.33353H31.6665C32.0863 6.33353 32.489 6.50028 32.786 6.79712C33.0829 7.09396 33.2498 7.49659 33.25 7.91646V23.75C33.25 24.17 33.0832 24.5728 32.7862 24.8697C32.4892 25.1667 32.0864 25.3335 31.6665 25.3335H6.33353C5.91355 25.3335 5.51078 25.1667 5.21381 24.8697C4.91684 24.5728 4.75 24.17 4.75 23.75V7.91646Z" stroke="#22E27F" stroke-width="1.1875" stroke-linecap="round" stroke-linejoin="round"/>
</svg>
