<svg width="38" height="38" viewBox="0 0 38 38" fill="none" xmlns="http://www.w3.org/2000/svg">
<path d="M14.25 19C14.25 20.2598 14.7505 21.4681 15.6413 22.359C16.5322 23.2498 17.7404 23.7503 19.0003 23.7503C20.2602 23.7503 21.4684 23.2498 22.3593 22.359C23.2501 21.4681 23.7506 20.2598 23.7506 19C23.7506 17.7401 23.2501 16.5319 22.3593 15.641C21.4684 14.7502 20.2602 14.2497 19.0003 14.2497C17.7404 14.2497 16.5322 14.7502 15.6413 15.641C14.7505 16.5319 14.25 17.7401 14.25 19Z" stroke="#22E27F" stroke-width="1.1875" stroke-linecap="round" stroke-linejoin="round"/>
<path d="M6.33357 19C6.32213 20.6707 6.64132 22.3272 7.27276 23.874C7.90419 25.4209 8.8354 26.8275 10.0128 28.0129C11.1901 29.1984 12.5903 30.1392 14.1328 30.7812C15.6753 31.4232 17.3296 31.7538 19.0003 31.7538C20.6711 31.7538 22.3253 31.4232 23.8678 30.7812C25.4103 30.1392 26.8106 29.1984 27.9879 28.0129C29.1653 26.8275 30.0965 25.4209 30.7279 23.874C31.3593 22.3272 31.6785 20.6707 31.6671 19M6.33357 19C6.35646 15.6556 7.70109 12.4559 10.0741 10.0991C12.4471 7.74232 15.6558 6.41963 19.0003 6.41963C22.3448 6.41963 25.5536 7.74232 27.9266 10.0991C30.2996 12.4559 31.6442 15.6556 31.6671 19M6.33357 19H3.1665M31.6671 19H34.8336M19 3.16644V6.33351M19 31.6664V34.8335" stroke="#22E27F" stroke-width="1.1875" stroke-linecap="round" stroke-linejoin="round"/>
</svg>
